<?xml version="1.0" encoding="utf-8"?>
<!-- Generator: Adobe Illustrator 23.0.1, SVG Export Plug-In . SVG Version: 6.00 Build 0)  -->
<!DOCTYPE svg PUBLIC "-//W3C//DTD SVG 1.1//EN" "http://www.w3.org/Graphics/SVG/1.1/DTD/svg11.dtd" [
	<!ENTITY st0 "fill-rule:evenodd;clip-rule:evenodd;fill:#FFFFFF;">
	<!ENTITY st1 "fill-rule:evenodd;clip-rule:evenodd;fill:#F47D61;">
]>
<svg version="1.1" id="Layer_1" xmlns="http://www.w3.org/2000/svg" xmlns:xlink="http://www.w3.org/1999/xlink" x="0px" y="0px"
	 viewBox="0 0 400 132" style="enable-background:new 0 0 400 132;" xml:space="preserve">
<path style="&st0;" d="M136.049,65.774c11.518,6.386,18.261,16.678,18.261,28.77c0,10.921-4.588,20.134-13.268,26.645
	c-8.574,6.432-20.897,9.832-35.639,9.832l-56.546-0.001V66.957v-2.365V0.527h56.546c14.742,0,27.065,3.399,35.639,9.832
	c8.68,6.51,13.268,15.724,13.268,26.644C154.31,49.095,147.567,59.388,136.049,65.774z M66.427,115.253h40.67
	c17.759,0,29.235-8.199,29.235-20.887c0-12.799-12.223-21.067-31.141-21.067H66.427V115.253z M107.097,16.296h-40.67v41.955h38.764
	c18.918,0,31.141-8.27,31.141-21.068C136.332,24.494,124.856,16.296,107.097,16.296z"/>
<path style="&st0;" d="M226.575,56.974c21.281,7.683,43.286,15.627,43.286,38.096c0,21.159-20.058,35.936-48.776,35.936
	c-21.482,0-39.654-8.007-50.493-20.898c-0.382-0.454-0.667-0.975-0.851-1.53l12.538-10.438c0.494,0.255,0.946,0.594,1.325,1.017
	c9.108,10.138,20.885,15.721,36.624,15.721c18.579,0,31.555-7.998,31.555-19.449c0-11.099-12.666-16.114-33.333-23.378
	c-2.115-0.742-4.265-1.499-6.436-2.28c-13.987-5.136-37.349-13.716-37.349-35.123c0-9.791,4.754-18.617,13.387-24.852
	c8.413-6.076,19.761-9.286,32.818-9.286c17.007,0,35.936,5.937,47.276,17.17c0.624,0.618,1.05,1.396,1.248,2.237L257.27,30.013
	c-0.605-0.223-1.163-0.567-1.634-1.025c-8.422-8.194-22.738-12.35-34.766-12.35c-16.298,0-28.127,7.348-28.127,17.471
	c0,8.791,9.395,13.907,26.73,20.274C221.854,55.27,224.222,56.126,226.575,56.974z"/>
<path style="&st0;" d="M388.549,30.706c-9.31-8.971-22.17-14.519-36.374-14.519c-28.416,0-51.453,22.206-51.453,49.598
	c0,27.393,23.036,49.599,51.453,49.599c13.702,0,26.151-5.164,35.372-13.581l11.648,11.65
	c-12.239,11.218-28.793,18.103-47.015,18.103c-37.688,0-68.24-29.45-68.24-65.779C283.94,29.45,314.492,0,352.18,0
	c18.626,0,35.506,7.196,47.82,18.858L388.549,30.706z"/>
<path style="&st1;" d="M0,105.354h25.669v25.668H0V105.354z"/>
</svg>
